<svg width="512" height="512" viewBox="0 0 512 512" fill="none" xmlns="http://www.w3.org/2000/svg">
<rect width="512" height="512" rx="96" fill="#0A0A0A"/>
<g transform="translate(77, 145) scale(1.18)">
<path d="M209.765 0C261.679 0.000214411 303.765 42.0854 303.765 94C303.765 145.915 261.679 188 209.765 188C196.156 188 183.222 185.108 171.545 179.905C159.2 174.404 144.563 174.404 132.218 179.905C120.542 185.108 107.609 188 94 188C42.0852 188 0 145.915 0 94C8.24658e-05 42.0853 42.0853 8.24758e-05 94 0C107.609 0 120.542 2.89199 132.219 8.0948C144.564 13.5954 159.2 13.5953 171.545 8.09483C183.222 2.89195 196.156 0 209.765 0Z" fill="#00FFA2"/>
</g>
</svg>
